<svg xmlns="http://www.w3.org/2000/svg" viewBox="0 0 987.19 981.19"><defs><style>.cls-1{fill:#fff;}</style></defs><title>Fichier 2</title><g id="Calque_2" data-name="Calque 2"><g id="Calque_1-2" data-name="Calque 1"><g id="_9YMxIf" data-name="9YMxIf"><path class="cls-1" d="M987.09,362.09v5q0,289.47.1,579c0,3.94-1,5.88-4.78,7.43-20.81,8.48-41.49,17.29-62.21,26a20.43,20.43,0,0,1-8.12,1.6q-453.23,0-906.44.08C1,981.19,0,979.88,0,975.43c.23-22.66.18-45.33,0-68,0-3.21,1.15-4.62,3.88-5.77,21.47-9,42.9-18.14,64.36-27.19a22,22,0,0,1,8.68-1.43q222.5.06,445,.15c4.81,0,6.34-.84,6.33-6.1q-.25-195.49,0-391c0-5.14-1.35-6.18-6.28-6.16-45.16.2-90.32.05-135.49.22-4.34,0-5.48-.95-5.48-5.41Q381.2,250,381,35.29c0-3.79.78-5.84,4.67-7.22C404.86,21.28,423.92,14.16,443,7.15c5-1.85,10.08-3.68,15.09-5.6a23.67,23.67,0,0,1,8.67-1.5q237,.06,474,0c14,0,28,.13,42.07-.09,3.61,0,4.37,1.09,4.35,4.5q-.23,34.74,0,69.49c0,3-.94,4.08-3.71,5.22-18.08,7.43-36,15.15-54,22.8-8.77,3.74-17.48,6.31-27.43,6.28-121.66-.32-243.32-.18-365-.32-4.69,0-6,.92-6,5.88q.27,121.23,0,242.48c0,5,1.37,5.87,6,5.87q221.73-.19,443.47-.11ZM838.1,671.7q0-98.24.1-196.47c0-4.06-.86-5.27-5.12-5.26q-75.49.25-151,0c-4.28,0-5.1,1.24-5.1,5.28q.16,196.21,0,392.43c0,4.26.82,5.55,5.37,5.53q75.24-.29,150.47,0c4.59,0,5.37-1.32,5.36-5.54Q838,769.68,838.1,671.7Zm78.49,305.19a7,7,0,0,0,1.43-.25c20.13-8.41,40.17-17,60.44-25.08,4.76-1.89,5.76-4.26,5.75-9q-.18-284.91-.11-569.82v-6.08a22.1,22.1,0,0,0-4.43,1.14c-19.62,8.38-39.2,16.87-59,24.8-3.91,1.57-4.65,3.32-4.65,7q.12,285.92.1,571.82C916.12,973.24,915.68,975.08,916.59,976.89Zm-310.5-74.75c21.87-9.07,42.9-17.84,64-26.48,3.2-1.31,4.13-3.21,4.12-6.64q-.16-101.49-.09-203,0-95.23.08-190.47c0-4-.47-5.74-5.25-5.65q-28.48.51-57,0c-4.82-.08-6,1.12-6,6q.21,210.21.11,420.42ZM460.09,249q0,68.21,0,136.41c0,3.66,0,5.57,4.69,3.53,19.87-8.58,39.91-16.77,59.91-25.05,2.66-1.1,3.53-2.76,3.52-5.68q-.12-122.93,0-245.85c0-3.57-1-4.4-4.46-4.37-19.32.16-38.64.21-58,0-4.41-.06-5.81.91-5.78,5.62C460.17,158.73,460.09,203.87,460.09,249ZM976.48,3.29c-2.05-.14-2.54-.2-3-.2H466.14a12.9,12.9,0,0,0-4.78.84c-11.87,4.5-23.82,8.79-35.73,13.16-11.22,4.11-22.43,8.25-34.74,12.78,1.85.14,2.48.22,3.1.22q258.15,0,516.3,0A13.18,13.18,0,0,0,915.51,29c11.41-4.78,22.88-9.43,34.29-14.21C958.29,11.19,966.72,7.49,976.48,3.29ZM9.2,903.09H523.31c.32,0,.84,0,1.15.07,3.27.32,4.24-1.34,3.5-6.13a48.7,48.7,0,0,1,0-14.11c.83-5.93-.52-6.93-5.08-6.93q-222.9.16-445.8.12a12.54,12.54,0,0,0-5.33.64C51,885.62,30.08,894.33,9.2,903.09ZM466.71,391.65c1.75.34,1.91.4,2.08.4q221.4,0,442.8.08a12.88,12.88,0,0,0,5.18-1.31C930.87,384.87,945,379,959.09,373c6.12-2.59,12.19-5.31,18.29-7.95h-6.2q-218.65,0-437.31,0a21.48,21.48,0,0,0-8.51,1.95c-9.9,4.17-19.88,8.17-29.78,12.32C486.33,383.19,477.14,387.18,466.71,391.65ZM615,902.17c.06.3.11.61.17.92H833.5a10.72,10.72,0,0,1,1.5,0c2.36.29,3.2-.68,3.15-3.09-.14-5.82-.37-11.68.05-17.48.37-5-.91-6.62-6.32-6.59-47.8.24-95.6.16-143.4.11-7,0-13.7-.11-20.06,3.75-4,2.41-8.73,3.5-13.08,5.32Q635.15,893.6,615,902.17ZM916.1,103.83l18.54-7.74q23-9.59,46-19.16c2.6-1.08,3.58-2.71,3.55-5.68-.15-18.49-.08-37-.08-55.47V3.71c-8.35,3.61-16.06,7-23.83,10.28-13.65,5.74-27.35,11.39-41,17-1.91.78-3.22,1.57-3.2,4.15C916.15,57.84,916.1,80.49,916.1,103.83Z"/></g></g></g></svg>